<svg xmlns="http://www.w3.org/2000/svg" version="1.1" xmlns:xlink="http://www.w3.org/1999/xlink" width="512" height="512"><svg id="SvgjsSvg1001" xmlns="http://www.w3.org/2000/svg" version="1.1" viewBox="0 0 512 512">
  <!-- Generator: Adobe Illustrator 29.5.1, SVG Export Plug-In . SVG Version: 2.1.0 Build 141)  -->
  <defs>
    <style>
      .st0 {
        fill: #fff;
      }
    </style>
  </defs>
  <g>
    <path d="M280.15,445.01s0,0,0,0c-5.33,0-10.71-.09-16.01-.26-43.67-1.45-84.14-8.85-117.02-21.39-31.57-12.04-55-28.3-67.76-47.02-11.3-16.58-13.76-34.22-7.3-52.41,21.54-60.67,135.78-108.19,260.08-108.19,5.33,0,10.72.09,16.02.27,61.65,2.05,116.44,16.08,152.46,38.8l-89.67,19.52c-21.53-10.25-49.21-16.2-80.18-17.23-3.15-.1-6.36-.16-9.53-.16-35.92,0-71.73,6.71-100.83,18.89-29.86,12.5-49.98,29.72-56.64,48.5-4.46,12.57-2.72,25.23,5.04,36.61,16.77,24.6,59.96,40.97,112.73,42.72,3.12.1,6.3.16,9.44.16,27.84,0,55.75-4.06,80.82-11.74l70.94,23.96c-47.5,18.74-104.73,28.98-162.58,28.98Z"></path>
    <path class="st0" d="M332.14,220.09c5.29,0,10.63.09,15.88.26,55.67,1.85,105.58,13.53,140.75,32.56l-77.3,16.83c-21.87-10.11-49.64-15.98-80.55-17.01-3.2-.11-6.46-.16-9.67-.16-77.89,0-147.36,30.22-161.58,70.29-4.95,13.93-3.03,27.95,5.54,40.53,8.71,12.77,24.14,23.66,44.62,31.47,20.24,7.72,44.99,12.27,71.57,13.15,3.17.11,6.4.16,9.59.16,27.76,0,55.61-3.98,80.74-11.52l58.01,19.59c-44.62,15.82-96.83,24.41-149.58,24.41-5.28,0-10.62-.09-15.87-.26-43.19-1.43-83.17-8.73-115.61-21.11-30.73-11.72-53.46-27.42-65.71-45.4-10.47-15.37-12.76-31.69-6.79-48.5,4.93-13.88,15.16-27.38,30.42-40.11,15.24-12.72,34.8-24.12,58.13-33.89,48.2-20.18,107.66-31.29,167.43-31.29M332.14,211.37c-125.53,0-241.87,48.21-264.19,111.09-23.28,65.57,64.49,122.27,196.04,126.64,5.4.18,10.79.27,16.16.27,64.62,0,126.79-12.78,174.98-33.76l-83.27-28.12c-24.11,7.55-52.06,11.96-80.87,11.96-3.09,0-6.19-.05-9.3-.15-76.37-2.54-127.32-35.45-113.8-73.52,12.96-36.5,80.5-64.49,153.37-64.49,3.12,0,6.25.05,9.38.16,32.08,1.07,59.57,7.54,79.78,17.45l101.07-22c-35.02-25.62-92.82-42.92-163.17-45.26-5.4-.18-10.8-.27-16.17-.27h0Z"></path>
  </g>
  <g>
    <path class="st0" d="M195.63,443.79c-104.51,0-189.53-85.02-189.53-189.53S91.13,64.73,195.63,64.73s189.53,85.02,189.53,189.53-85.02,189.53-189.53,189.53ZM195.63,135.42c-65.53,0-118.84,53.31-118.84,118.84s53.31,118.84,118.84,118.84,118.84-53.31,118.84-118.84-53.31-118.84-118.84-118.84Z"></path>
    <path d="M195.63,70.31c49.13,0,95.33,19.13,130.07,53.88,34.74,34.74,53.88,80.94,53.88,130.07s-19.13,95.33-53.88,130.07c-34.74,34.74-80.94,53.88-130.07,53.88s-95.33-19.13-130.07-53.88c-34.74-34.74-53.88-80.94-53.88-130.07s19.13-95.33,53.88-130.07c34.74-34.74,80.94-53.88,130.07-53.88M195.63,378.68c68.61,0,124.42-55.82,124.42-124.42s-55.82-124.42-124.42-124.42-124.42,55.82-124.42,124.42,55.82,124.42,124.42,124.42M195.63,59.15C87.88,59.15.52,146.5.52,254.26s87.35,195.11,195.11,195.11,195.11-87.35,195.11-195.11S303.39,59.15,195.63,59.15h0ZM195.63,367.52c-62.55,0-113.26-50.71-113.26-113.26s50.71-113.26,113.26-113.26,113.26,50.71,113.26,113.26-50.71,113.26-113.26,113.26h0Z"></path>
  </g>
</svg><style>@media (prefers-color-scheme: light) { :root { filter: none; } }
@media (prefers-color-scheme: dark) { :root { filter: none; } }
</style></svg>